<svg xmlns="http://www.w3.org/2000/svg" version="1.1" xmlns:xlink="http://www.w3.org/1999/xlink" xmlns:svgjs="http://svgjs.dev/svgjs" viewBox="0 0 1920 1080"><rect width="1920" height="1080" fill="#22194d"/><g transform="matrix(1.15,0,0,1.15,-142.05687303543073,-81)"><path d="M0,-1080C0.6822468502997528,-1017.1959784310396,8.404631932719948,-828.860957431086,4.093481101798517,-703.1758705862377C-0.21766972912291305,-577.4907837413894,-27.106011271222958,-458.47152679465364,-25.866904985528578,-325.88947893091006C-24.627798699834198,-193.3074310671665,9.574318989109733,-57.64635051774246,11.528118815964802,92.31641659622369C13.481918642819872,242.27918371018984,-21.396935287551617,441.648475108805,-14.144106024398155,573.8871237528869C-6.891276761244693,706.1257723969687,50.643827325003464,748.1024651964718,55.04509439488558,885.7483084607147C59.4463614647677,1023.3941517249576,19.422837364871068,1261.0988757292616,12.263496394894531,1399.7621833383441C5.1041554249179955,1538.4254909474266,14.132964640842124,1591.0218513382672,12.089048575026368,1717.72815411521C10.045132509210612,1844.4344568921526,2.0148414291710615,2086.2880256858684,0,2160L 1920 2160 L 1920 -1080 Z" fill="url(&quot;#SvgjsLinearGradient1022&quot;)"/><path d="M480,-1080C484.28936399249505,-949.5751064485046,512.7322399709699,-573.1945088099806,505.7361839549702,-297.4506386910273C498.7401279389705,-21.706768572073997,450.2374186095202,304.62567383975494,438.0236639040017,574.4632207137197C425.8099091984832,844.3007675876845,425.4575997058594,1057.3185126717144,432.45365572185915,1321.5746425527611C439.4497117378589,1585.8307724338079,472.07560928697654,2020.2624404254602,480,2160L 1920 2160 L 1920 -1080 Z" fill="url(&quot;#SvgjsLinearGradient1023&quot;)"/><path d="M960,-1080C949.8008305211999,-940.442805784269,898.520301962491,-514.141791169604,898.8049831272,-242.65683470561424C899.089664291909,28.82812175837546,945.5902828788207,278.62100881154737,961.7080869882541,548.9097387839381C977.8258910976874,819.1984687563288,995.7964889485087,1110.5605015927197,995.5118077837997,1379.07554512873C995.2271266190907,1647.5905886647404,965.9186346306333,2029.8459241881217,960,2160L 1920 2160 L 1920 -1080 Z" fill="url(&quot;#SvgjsLinearGradient1024&quot;)"/><path d="M1440,-1080C1441.464092689478,-989.5298014851503,1459.2310535119532,-711.6734015272002,1448.784556136869,-537.178808910902C1438.3380587617849,-362.68421629460386,1368.1663194003597,-213.3786756737068,1377.3210157494946,-33.032444302211104C1386.4757120986294,147.3137870692846,1487.7354224772012,369.961497506221,1503.7127342316776,544.8985793180719C1519.690045986154,719.8356611299229,1492.8122410529297,830.0879065854625,1473.1848862763536,1016.5900465688942C1453.5575314997775,1203.092186552326,1391.4794199516132,1473.3430936468114,1385.948605572221,1663.9114192186623C1380.4177911928286,1854.4797447905132,1430.9914342620368,2077.318569869777,1440,2160L 1920 2160 L 1920 -1080 Z" fill="url(&quot;#SvgjsLinearGradient1025&quot;)"/></g><defs><linearGradient x1="0.1" y1="0" x2="0" y2="1" id="SvgjsLinearGradient1022"><stop stop-color="#22194d" offset="0"/><stop stop-color="#19194d" offset="0"/></linearGradient><linearGradient x1="0.1" y1="0" x2="0" y2="1" id="SvgjsLinearGradient1023"><stop stop-color="#4734a1" offset="0"/><stop stop-color="#3534a1" offset="0.25"/></linearGradient><linearGradient x1="0.1" y1="0" x2="0" y2="1" id="SvgjsLinearGradient1024"><stop stop-color="#8372d1" offset="0"/><stop stop-color="#7372d1" offset="0.5"/></linearGradient><linearGradient x1="0.1" y1="0" x2="0" y2="1" id="SvgjsLinearGradient1025"><stop stop-color="#ccc6ec" offset="0"/><stop stop-color="#c6c6ec" offset="0.75"/></linearGradient></defs></svg>